<svg width="36" height="40" viewBox="0 0 36 40" fill="none" xmlns="http://www.w3.org/2000/svg">
<path d="M27.6959 34.0624C27.6959 34.7186 27.168 35.2343 26.4959 35.2343H9.60002C8.92794 35.2343 8.40002 34.7186 8.40002 34.0624C8.40002 33.4061 8.92794 32.8906 9.60002 32.8906H26.4959C27.168 32.8906 27.6959 33.4061 27.6959 34.0624Z" fill="url(#paint0_linear_46_283)"/>
<path d="M8.74457 39.9999H6.27193C5.52385 39.9999 4.96289 39.3395 5.09065 38.6244L11.7061 0.968202C11.8069 0.408593 12.3061 0 12.8874 0H15.36C16.1081 0 16.6691 0.660467 16.5413 1.37554L9.92585 39.0317C9.82497 39.5914 9.32577 39.9999 8.74457 39.9999Z" fill="url(#paint1_linear_46_283)"/>
<path d="M27.2709 39.9999H29.7436C30.4917 39.9999 31.0526 39.3395 30.9249 38.6244L24.3094 0.968202C24.2086 0.408593 23.7094 0 23.1281 0H20.6555C19.9074 0 19.3464 0.660467 19.4742 1.37554L26.0897 39.0317C26.1905 39.5914 26.6897 39.9999 27.2709 39.9999Z" fill="url(#paint2_linear_46_283)"/>
<g filter="url(#filter0_bi_46_283)">
<path d="M34.8 4.76562H1.2C0.52792 4.76562 0 5.28116 0 5.93749V29.3749C0 30.0311 0.52792 30.5468 1.2 30.5468H34.8C35.4721 30.5468 36 30.0311 36 29.3749V5.93749C36 5.28116 35.4721 4.76562 34.8 4.76562Z" fill="url(#paint3_linear_46_283)" fill-opacity="0.2"/>
</g>
<path d="M27.5746 20.2315L20.4311 13.2555C20.0823 12.9148 19.5172 12.9148 19.1684 13.2555L18.0139 14.3829L15.3351 16.9989L14.1806 15.8714C13.8318 15.5308 13.2667 15.5308 12.9179 15.8714L8.45322 20.2314C8.19862 20.4809 8.12188 20.8556 8.25963 21.1818C8.39738 21.508 8.7236 21.72 9.08459 21.72H18.0139H26.9433C27.3043 21.72 27.6304 21.508 27.7682 21.1818C27.9059 20.8556 27.8292 20.481 27.5746 20.2315Z" fill="white"/>
<defs>
<filter id="filter0_bi_46_283" x="-4" y="0.765617" width="44" height="33.7812" filterUnits="userSpaceOnUse" color-interpolation-filters="sRGB">
<feFlood flood-opacity="0" result="BackgroundImageFix"/>
<feGaussianBlur in="BackgroundImageFix" stdDeviation="2"/>
<feComposite in2="SourceAlpha" operator="in" result="effect1_backgroundBlur_46_283"/>
<feBlend mode="normal" in="SourceGraphic" in2="effect1_backgroundBlur_46_283" result="shape"/>
<feColorMatrix in="SourceAlpha" type="matrix" values="0 0 0 0 0 0 0 0 0 0 0 0 0 0 0 0 0 0 127 0" result="hardAlpha"/>
<feOffset dx="0.2" dy="0.1"/>
<feGaussianBlur stdDeviation="0.5"/>
<feComposite in2="hardAlpha" operator="arithmetic" k2="-1" k3="1"/>
<feColorMatrix type="matrix" values="0 0 0 0 1 0 0 0 0 1 0 0 0 0 1 0 0 0 0.6 0"/>
<feBlend mode="normal" in2="shape" result="effect2_innerShadow_46_283"/>
</filter>
<linearGradient id="paint0_linear_46_283" x1="9.70822" y1="33.6056" x2="20.4376" y2="25.1928" gradientUnits="userSpaceOnUse">
<stop stop-color="#F23268"/>
<stop offset="1" stop-color="#F23268" stop-opacity="0.5"/>
</linearGradient>
<linearGradient id="paint1_linear_46_283" x1="5.85123" y1="12.2034" x2="16.1578" y2="11.9215" gradientUnits="userSpaceOnUse">
<stop stop-color="#F23268"/>
<stop offset="1" stop-color="#F23268" stop-opacity="0.5"/>
</linearGradient>
<linearGradient id="paint2_linear_46_283" x1="30.1643" y1="12.2034" x2="19.8577" y2="11.9215" gradientUnits="userSpaceOnUse">
<stop stop-color="#F23268"/>
<stop offset="1" stop-color="#F23268" stop-opacity="0.5"/>
</linearGradient>
<linearGradient id="paint3_linear_46_283" x1="18" y1="4.76562" x2="18" y2="30.5468" gradientUnits="userSpaceOnUse">
<stop stop-color="#F23268" stop-opacity="0.2"/>
<stop offset="0.9997" stop-color="#F23268" stop-opacity="0.63499"/>
<stop offset="0.9998" stop-color="#F23268" stop-opacity="0.639481"/>
<stop offset="0.9999" stop-color="#F23268" stop-opacity="0.644063"/>
<stop offset="1" stop-color="#F23268" stop-opacity="0.49"/>
</linearGradient>
</defs>
</svg>
