<svg width="40" height="40" viewBox="0 0 40 40" fill="none" xmlns="http://www.w3.org/2000/svg">
<path d="M37.2656 40H12.2656C11.2215 40 10.6987 38.7377 11.4369 37.9995L15.7812 33.6552V17.3438H37.2656C38.7758 17.3438 40 18.568 40 20.0781V37.2656C40 38.7758 38.7758 40 37.2656 40Z" fill="url(#paint0_linear_46_276)"/>
<path d="M32.6879 33.7269L29.1996 24.4835C29.1956 24.4727 29.1914 24.4622 29.187 24.4516C28.9727 23.9304 28.469 23.5938 27.9056 23.5938C27.9051 23.5938 27.906 23.5938 27.9056 23.5938C27.3415 23.5944 26.8391 23.932 26.6255 24.4541C26.6218 24.4629 26.6183 24.4718 26.6149 24.4807L23.0946 33.7237C22.8643 34.3285 23.1678 35.0055 23.7727 35.2359C24.3778 35.4666 25.0545 35.1626 25.2849 34.5578L25.8741 33.0105H29.9124L30.4951 34.5545C30.6723 35.0237 31.1181 35.3129 31.5917 35.3129C31.7292 35.3129 31.8691 35.2885 32.0052 35.2371C32.6108 35.0085 32.9164 34.3323 32.6879 33.7269ZM26.7668 30.6667L27.9026 27.6847L29.028 30.6667H26.7668Z" fill="white"/>
<g filter="url(#filter0_bi_46_276)">
<path d="M0 26.3281V2.73438C0 1.22422 1.22422 0 2.73438 0H24.6094C26.1195 0 27.3438 1.22422 27.3438 2.73438V19.2969C27.3438 20.807 26.1195 22.0312 24.6094 22.0312H7.86219L1.94359 27.2101C1.18586 27.873 0 27.3349 0 26.3281Z" fill="url(#paint1_linear_46_276)" fill-opacity="0.5"/>
</g>
<path d="M18.3594 14.9219C17.3838 14.9219 16.4577 14.7087 15.6225 14.3292C16.8306 13.0043 17.6484 11.3177 17.8923 9.45312H18.3594C19.0066 9.45312 19.5312 8.92844 19.5312 8.28125C19.5312 7.63406 19.0066 7.10938 18.3594 7.10938H14.8438V5.9375C14.8438 5.29031 14.3191 4.76562 13.6719 4.76562C13.0247 4.76562 12.5 5.29031 12.5 5.9375V7.10938H8.98438C8.33719 7.10938 7.8125 7.63406 7.8125 8.28125C7.8125 8.92844 8.33719 9.45312 8.98438 9.45312H9.45141C9.69539 11.3177 10.5131 13.0043 11.7212 14.3292C10.8861 14.7087 9.95992 14.9219 8.98438 14.9219C8.33719 14.9219 7.8125 15.4466 7.8125 16.0938C7.8125 16.7409 8.33719 17.2656 8.98438 17.2656C10.7009 17.2656 12.3063 16.7814 13.6719 15.9429C15.0374 16.7814 16.6428 17.2656 18.3594 17.2656C19.0066 17.2656 19.5312 16.7409 19.5312 16.0938C19.5312 15.4466 19.0066 14.9219 18.3594 14.9219ZM11.8244 9.45312H15.5193C15.2752 10.8177 14.6146 12.0398 13.6718 12.9803C12.7291 12.0398 12.0685 10.8177 11.8244 9.45312Z" fill="white"/>
<defs>
<filter id="filter0_bi_46_276" x="-4" y="-4" width="35.3438" height="35.5023" filterUnits="userSpaceOnUse" color-interpolation-filters="sRGB">
<feFlood flood-opacity="0" result="BackgroundImageFix"/>
<feGaussianBlur in="BackgroundImageFix" stdDeviation="2"/>
<feComposite in2="SourceAlpha" operator="in" result="effect1_backgroundBlur_46_276"/>
<feBlend mode="normal" in="SourceGraphic" in2="effect1_backgroundBlur_46_276" result="shape"/>
<feColorMatrix in="SourceAlpha" type="matrix" values="0 0 0 0 0 0 0 0 0 0 0 0 0 0 0 0 0 0 127 0" result="hardAlpha"/>
<feOffset dx="0.2" dy="0.1"/>
<feGaussianBlur stdDeviation="0.5"/>
<feComposite in2="hardAlpha" operator="arithmetic" k2="-1" k3="1"/>
<feColorMatrix type="matrix" values="0 0 0 0 1 0 0 0 0 1 0 0 0 0 1 0 0 0 0.6 0"/>
<feBlend mode="normal" in2="shape" result="effect2_innerShadow_46_276"/>
</filter>
<linearGradient id="paint0_linear_46_276" x1="25.5457" y1="17.3438" x2="25.5457" y2="40" gradientUnits="userSpaceOnUse">
<stop stop-color="#0077FF"/>
<stop offset="1" stop-color="#0077FF" stop-opacity="0.5"/>
</linearGradient>
<linearGradient id="paint1_linear_46_276" x1="13.6719" y1="0" x2="13.6719" y2="27.5023" gradientUnits="userSpaceOnUse">
<stop stop-color="#0077FF" stop-opacity="0.2"/>
<stop offset="1" stop-color="#0077FF" stop-opacity="0"/>
</linearGradient>
</defs>
</svg>
