<svg width="40" height="44" viewBox="0 0 40 44" fill="none" xmlns="http://www.w3.org/2000/svg">
<path d="M30.9826 30.3967C31.0255 30.3468 31.0611 30.3002 31.1099 30.2561C31.741 29.6862 36.5075 25.4739 38.7894 23.458C39.3469 22.9656 39.1875 22.0615 38.4975 21.7837L38.4556 21.7668C37.529 21.3004 37.8378 20.834 37.9923 20.2121C38.0889 19.8231 38.7291 17.6708 39.1952 16.1127C39.4154 15.3765 38.7584 14.6752 38.009 14.8453C36.7926 15.1216 35.2744 15.4596 34.749 15.5478C34.1313 15.7032 33.8224 15.3923 33.668 14.9258C33.6027 14.7288 33.3996 14.1987 33.1868 13.6522C32.9153 12.9549 32.0019 12.7971 31.5092 13.3604C30.2509 14.7991 28.2871 17.0405 27.8644 17.4998C27.8197 17.5483 27.772 17.5881 27.7159 17.6227C26.872 18.1428 26.8535 17.3894 26.2548 16.6361C23.0116 12.7492 16.2162 13.5266 13.7452 16.6361C13.1466 17.2387 13.128 18.1333 12.2843 17.6224C12.2279 17.5882 12.1801 17.5473 12.136 17.4983C11.751 17.0705 9.83455 14.8879 8.56432 13.44C8.05437 12.8587 7.10462 13.0522 6.8202 13.7713C6.6943 14.0896 6.56781 14.3835 6.46265 14.5758C6.38839 14.7117 6.30977 14.848 6.25499 14.9928C6.11892 15.3524 5.91953 15.6482 5.34232 15.5637C5.28155 15.5548 5.2228 15.5359 5.16473 15.5158C4.61977 15.3279 3.11235 15.0098 1.92019 14.7717C1.1856 14.625 0.565594 15.3133 0.780348 16.0309C1.2482 17.5944 1.90944 19.8163 2.00772 20.2121C2.16216 20.6785 2.47104 21.3004 1.5444 21.7668L1.50249 21.7837C0.812538 22.0615 0.653127 22.9656 1.21056 23.458C3.62924 25.5947 8.83903 30.1988 8.95753 30.3181C9.42085 30.7845 9.88417 30.94 9.42085 32.1838C9.25805 32.6209 9.09524 33.1155 8.95254 33.5733C8.73042 34.2859 9.35953 34.9563 10.0896 34.8012C12.3359 34.324 16.2691 33.4756 17.272 33.1765C17.3947 33.1399 17.5176 33.1152 17.6455 33.1203C18.348 33.1482 18.9961 33.3503 18.9961 34.205C18.9961 34.9385 18.7097 40.5748 18.5872 42.95C18.5578 43.522 19.0137 44.0001 19.5865 44.0001H20.1047C20.6775 44.0001 21.1334 43.522 21.1039 42.95C20.9815 40.5748 20.695 34.9385 20.695 34.205C20.695 33.3057 21.4126 33.1289 22.1561 33.1173C22.2115 33.1164 22.2633 33.1205 22.3178 33.1307C23.1842 33.2927 27.2518 34.2261 29.5695 34.7612C30.3063 34.9313 30.9519 34.2552 30.7262 33.5335C30.5865 33.087 30.4284 32.6082 30.2703 32.1838C29.8339 31.0124 30.6304 30.8063 30.9826 30.3967Z" fill="url(#paint0_linear_8_16)"/>
<g filter="url(#filter0_bi_8_16)">
<path d="M19.9966 34.2443C22.0835 34.1932 23.8578 32.7058 24.2723 30.6598L26.733 18.5166C26.963 16.7814 28.0652 11.5426 28.7276 8.45614C28.9141 7.58718 27.9554 6.91458 27.1922 7.36996C26.6106 7.71699 26.0401 8.04437 25.6887 8.21305C25.6066 8.25246 25.53 8.29967 25.4566 8.35367C24.8731 8.78349 24.4168 8.75376 23.9668 7.87304C23.9191 7.77976 23.8636 7.69466 23.805 7.60783C23.3226 6.89308 21.7959 3.85424 20.7988 1.8402C20.429 1.09313 19.3597 1.09346 18.9916 1.8414C17.9864 3.88413 16.4405 6.99658 15.9712 7.78256C15.9184 7.87088 15.8761 7.96111 15.8414 8.05797C15.5214 8.95132 15.0619 8.96324 14.4626 8.50692C14.4134 8.46943 14.3625 8.43501 14.3082 8.4053C13.9133 8.18918 13.312 7.83924 12.7139 7.48577C11.9581 7.03916 11.0226 7.70296 11.2044 8.56177C11.8981 11.8385 13.1035 17.6557 13.2217 19.056L15.4966 30.6339C15.9169 32.7729 17.8174 34.2977 19.9966 34.2443V34.2443Z" fill="url(#paint1_linear_8_16)" fill-opacity="0.2"/>
</g>
<defs>
<filter id="filter0_bi_8_16" x="7.18152" y="-2.71985" width="25.5697" height="40.9655" filterUnits="userSpaceOnUse" color-interpolation-filters="sRGB">
<feFlood flood-opacity="0" result="BackgroundImageFix"/>
<feGaussianBlur in="BackgroundImageFix" stdDeviation="2"/>
<feComposite in2="SourceAlpha" operator="in" result="effect1_backgroundBlur_8_16"/>
<feBlend mode="normal" in="SourceGraphic" in2="effect1_backgroundBlur_8_16" result="shape"/>
<feColorMatrix in="SourceAlpha" type="matrix" values="0 0 0 0 0 0 0 0 0 0 0 0 0 0 0 0 0 0 127 0" result="hardAlpha"/>
<feOffset dx="0.2" dy="0.1"/>
<feGaussianBlur stdDeviation="0.5"/>
<feComposite in2="hardAlpha" operator="arithmetic" k2="-1" k3="1"/>
<feColorMatrix type="matrix" values="0 0 0 0 1 0 0 0 0 1 0 0 0 0 1 0 0 0 0.6 0"/>
<feBlend mode="normal" in2="shape" result="effect2_innerShadow_8_16"/>
</filter>
<linearGradient id="paint0_linear_8_16" x1="2.71186" y1="21.8512" x2="38.1221" y2="17.6188" gradientUnits="userSpaceOnUse">
<stop stop-color="#F23268"/>
<stop offset="1" stop-color="#F23268" stop-opacity="0.5"/>
</linearGradient>
<linearGradient id="paint1_linear_8_16" x1="19.9773" y1="0" x2="19.9773" y2="34.3367" gradientUnits="userSpaceOnUse">
<stop stop-color="#F23268" stop-opacity="0.2"/>
<stop offset="0.9997" stop-color="#F23268" stop-opacity="0.63499"/>
<stop offset="0.9998" stop-color="#F23268" stop-opacity="0.639481"/>
<stop offset="0.9999" stop-color="#F23268" stop-opacity="0.644063"/>
<stop offset="1" stop-color="#F23268" stop-opacity="0.49"/>
</linearGradient>
</defs>
</svg>
